<svg xmlns="http://www.w3.org/2000/svg" width="1300" height="500" viewBox="0 0 1300 500" font-family="Helvetica, Arial, sans-serif">
<defs>
  <radialGradient id="teakGrad" cx="50%" cy="50%" r="60%">
    <stop offset="0%" stop-color="#B07845"/>
    <stop offset="100%" stop-color="#7A4722"/>
  </radialGradient>
  <linearGradient id="aluGrad" x1="0" y1="0" x2="0" y2="1">
    <stop offset="0%" stop-color="#2C2C2C"/>
    <stop offset="100%" stop-color="#141414"/>
  </linearGradient>
  <linearGradient id="deckGrad" x1="0" y1="0" x2="0" y2="1">
    <stop offset="0%" stop-color="#D0D0D0"/>
    <stop offset="100%" stop-color="#B5B5B5"/>
  </linearGradient>
  <linearGradient id="knabGrad" x1="0" y1="0" x2="0" y2="1">
    <stop offset="0%" stop-color="#A8A8A8"/>
    <stop offset="100%" stop-color="#7A7A7A"/>
  </linearGradient>
  <linearGradient id="silverFaderKnobL" x1="0" y1="0" x2="0" y2="1">
    <stop offset="0%" stop-color="#D0D0D0"/>
    <stop offset="100%" stop-color="#B5B5B5"/>
  </linearGradient>
  <pattern id="woodGrain" width="3" height="100%" patternUnits="userSpaceOnUse">
    <rect width="3" height="100%" fill="#9C5F35"/>
    <line x1="0" y1="0" x2="0" y2="100%" stroke="#7A4722" stroke-width="0.4" stroke-opacity="0.25"/>
  </pattern>
</defs>

<rect x="0" y="0" width="1300" height="500" fill="url(#teakGrad)"/>
<rect x="0" y="0" width="1300" height="500" fill="url(#woodGrain)"/>
<rect x="27" y="27" width="1246" height="446" fill="none" stroke="#7A4722" stroke-width="1"/>
<rect x="28" y="28" width="1244" height="444" fill="url(#aluGrad)"/>
<rect x="28" y="28" width="1244" height="133" fill="url(#deckGrad)"/>
<line x1="28" y1="28" x2="1272" y2="28" stroke="#D0D0D0" stroke-width="0.4" stroke-opacity="0.3"/>
<line x1="28" y1="30" x2="1272" y2="30" stroke="#D0D0D0" stroke-width="0.4" stroke-opacity="0.3"/>
<line x1="28" y1="32" x2="1272" y2="32" stroke="#D0D0D0" stroke-width="0.4" stroke-opacity="0.3"/>
<line x1="28" y1="34" x2="1272" y2="34" stroke="#D0D0D0" stroke-width="0.4" stroke-opacity="0.3"/>
<line x1="28" y1="36" x2="1272" y2="36" stroke="#D0D0D0" stroke-width="0.4" stroke-opacity="0.3"/>
<line x1="28" y1="38" x2="1272" y2="38" stroke="#D0D0D0" stroke-width="0.4" stroke-opacity="0.3"/>
<line x1="28" y1="40" x2="1272" y2="40" stroke="#D0D0D0" stroke-width="0.4" stroke-opacity="0.3"/>
<line x1="28" y1="42" x2="1272" y2="42" stroke="#D0D0D0" stroke-width="0.4" stroke-opacity="0.3"/>
<line x1="28" y1="44" x2="1272" y2="44" stroke="#D0D0D0" stroke-width="0.4" stroke-opacity="0.3"/>
<line x1="28" y1="46" x2="1272" y2="46" stroke="#D0D0D0" stroke-width="0.4" stroke-opacity="0.3"/>
<line x1="28" y1="48" x2="1272" y2="48" stroke="#D0D0D0" stroke-width="0.4" stroke-opacity="0.3"/>
<line x1="28" y1="50" x2="1272" y2="50" stroke="#D0D0D0" stroke-width="0.4" stroke-opacity="0.3"/>
<line x1="28" y1="52" x2="1272" y2="52" stroke="#D0D0D0" stroke-width="0.4" stroke-opacity="0.3"/>
<line x1="28" y1="54" x2="1272" y2="54" stroke="#D0D0D0" stroke-width="0.4" stroke-opacity="0.3"/>
<line x1="28" y1="56" x2="1272" y2="56" stroke="#D0D0D0" stroke-width="0.4" stroke-opacity="0.3"/>
<line x1="28" y1="58" x2="1272" y2="58" stroke="#D0D0D0" stroke-width="0.4" stroke-opacity="0.3"/>
<line x1="28" y1="60" x2="1272" y2="60" stroke="#D0D0D0" stroke-width="0.4" stroke-opacity="0.3"/>
<line x1="28" y1="62" x2="1272" y2="62" stroke="#D0D0D0" stroke-width="0.4" stroke-opacity="0.3"/>
<line x1="28" y1="64" x2="1272" y2="64" stroke="#D0D0D0" stroke-width="0.4" stroke-opacity="0.3"/>
<line x1="28" y1="66" x2="1272" y2="66" stroke="#D0D0D0" stroke-width="0.4" stroke-opacity="0.3"/>
<line x1="28" y1="68" x2="1272" y2="68" stroke="#D0D0D0" stroke-width="0.4" stroke-opacity="0.3"/>
<line x1="28" y1="70" x2="1272" y2="70" stroke="#D0D0D0" stroke-width="0.4" stroke-opacity="0.3"/>
<line x1="28" y1="72" x2="1272" y2="72" stroke="#D0D0D0" stroke-width="0.4" stroke-opacity="0.3"/>
<line x1="28" y1="74" x2="1272" y2="74" stroke="#D0D0D0" stroke-width="0.4" stroke-opacity="0.3"/>
<line x1="28" y1="76" x2="1272" y2="76" stroke="#D0D0D0" stroke-width="0.4" stroke-opacity="0.3"/>
<line x1="28" y1="78" x2="1272" y2="78" stroke="#D0D0D0" stroke-width="0.4" stroke-opacity="0.3"/>
<line x1="28" y1="80" x2="1272" y2="80" stroke="#D0D0D0" stroke-width="0.4" stroke-opacity="0.3"/>
<line x1="28" y1="82" x2="1272" y2="82" stroke="#D0D0D0" stroke-width="0.4" stroke-opacity="0.3"/>
<line x1="28" y1="84" x2="1272" y2="84" stroke="#D0D0D0" stroke-width="0.4" stroke-opacity="0.3"/>
<line x1="28" y1="86" x2="1272" y2="86" stroke="#D0D0D0" stroke-width="0.4" stroke-opacity="0.3"/>
<line x1="28" y1="88" x2="1272" y2="88" stroke="#D0D0D0" stroke-width="0.4" stroke-opacity="0.3"/>
<line x1="28" y1="90" x2="1272" y2="90" stroke="#D0D0D0" stroke-width="0.4" stroke-opacity="0.3"/>
<line x1="28" y1="92" x2="1272" y2="92" stroke="#D0D0D0" stroke-width="0.4" stroke-opacity="0.3"/>
<line x1="28" y1="94" x2="1272" y2="94" stroke="#D0D0D0" stroke-width="0.4" stroke-opacity="0.3"/>
<line x1="28" y1="96" x2="1272" y2="96" stroke="#D0D0D0" stroke-width="0.4" stroke-opacity="0.3"/>
<line x1="28" y1="98" x2="1272" y2="98" stroke="#D0D0D0" stroke-width="0.4" stroke-opacity="0.3"/>
<line x1="28" y1="100" x2="1272" y2="100" stroke="#D0D0D0" stroke-width="0.4" stroke-opacity="0.3"/>
<line x1="28" y1="102" x2="1272" y2="102" stroke="#D0D0D0" stroke-width="0.4" stroke-opacity="0.3"/>
<line x1="28" y1="104" x2="1272" y2="104" stroke="#D0D0D0" stroke-width="0.4" stroke-opacity="0.3"/>
<line x1="28" y1="106" x2="1272" y2="106" stroke="#D0D0D0" stroke-width="0.4" stroke-opacity="0.3"/>
<line x1="28" y1="108" x2="1272" y2="108" stroke="#D0D0D0" stroke-width="0.4" stroke-opacity="0.3"/>
<line x1="28" y1="110" x2="1272" y2="110" stroke="#D0D0D0" stroke-width="0.4" stroke-opacity="0.3"/>
<line x1="28" y1="112" x2="1272" y2="112" stroke="#D0D0D0" stroke-width="0.4" stroke-opacity="0.3"/>
<line x1="28" y1="114" x2="1272" y2="114" stroke="#D0D0D0" stroke-width="0.4" stroke-opacity="0.3"/>
<line x1="28" y1="116" x2="1272" y2="116" stroke="#D0D0D0" stroke-width="0.4" stroke-opacity="0.3"/>
<line x1="28" y1="118" x2="1272" y2="118" stroke="#D0D0D0" stroke-width="0.4" stroke-opacity="0.3"/>
<line x1="28" y1="120" x2="1272" y2="120" stroke="#D0D0D0" stroke-width="0.4" stroke-opacity="0.3"/>
<line x1="28" y1="122" x2="1272" y2="122" stroke="#D0D0D0" stroke-width="0.4" stroke-opacity="0.3"/>
<line x1="28" y1="124" x2="1272" y2="124" stroke="#D0D0D0" stroke-width="0.4" stroke-opacity="0.3"/>
<line x1="28" y1="126" x2="1272" y2="126" stroke="#D0D0D0" stroke-width="0.4" stroke-opacity="0.3"/>
<line x1="28" y1="128" x2="1272" y2="128" stroke="#D0D0D0" stroke-width="0.4" stroke-opacity="0.3"/>
<line x1="28" y1="130" x2="1272" y2="130" stroke="#D0D0D0" stroke-width="0.4" stroke-opacity="0.3"/>
<line x1="28" y1="132" x2="1272" y2="132" stroke="#D0D0D0" stroke-width="0.4" stroke-opacity="0.3"/>
<line x1="28" y1="134" x2="1272" y2="134" stroke="#D0D0D0" stroke-width="0.4" stroke-opacity="0.3"/>
<line x1="28" y1="136" x2="1272" y2="136" stroke="#D0D0D0" stroke-width="0.4" stroke-opacity="0.3"/>
<line x1="28" y1="138" x2="1272" y2="138" stroke="#D0D0D0" stroke-width="0.4" stroke-opacity="0.3"/>
<line x1="28" y1="140" x2="1272" y2="140" stroke="#D0D0D0" stroke-width="0.4" stroke-opacity="0.3"/>
<line x1="28" y1="142" x2="1272" y2="142" stroke="#D0D0D0" stroke-width="0.4" stroke-opacity="0.3"/>
<line x1="28" y1="144" x2="1272" y2="144" stroke="#D0D0D0" stroke-width="0.4" stroke-opacity="0.3"/>
<line x1="28" y1="146" x2="1272" y2="146" stroke="#D0D0D0" stroke-width="0.4" stroke-opacity="0.3"/>
<line x1="28" y1="148" x2="1272" y2="148" stroke="#D0D0D0" stroke-width="0.4" stroke-opacity="0.3"/>
<line x1="28" y1="150" x2="1272" y2="150" stroke="#D0D0D0" stroke-width="0.4" stroke-opacity="0.3"/>
<line x1="28" y1="152" x2="1272" y2="152" stroke="#D0D0D0" stroke-width="0.4" stroke-opacity="0.3"/>
<line x1="28" y1="154" x2="1272" y2="154" stroke="#D0D0D0" stroke-width="0.4" stroke-opacity="0.3"/>
<line x1="28" y1="156" x2="1272" y2="156" stroke="#D0D0D0" stroke-width="0.4" stroke-opacity="0.3"/>
<line x1="28" y1="158" x2="1272" y2="158" stroke="#D0D0D0" stroke-width="0.4" stroke-opacity="0.3"/>
<line x1="28" y1="160" x2="1272" y2="160" stroke="#D0D0D0" stroke-width="0.4" stroke-opacity="0.3"/>
<circle cx="301" cy="94" r="47" fill="#F4EFE4" fill-opacity="0.7" stroke="#141414" stroke-width="0.8"/>
<circle cx="301" cy="94" r="39.949999999999996" fill="#8A4A35"/>
<circle cx="301" cy="94" r="21.150000000000002" fill="#F4EFE4" fill-opacity="0.7"/>
<circle cx="301" cy="94" r="21.150000000000002" fill="none" stroke="#8A4A35" stroke-width="0.3" stroke-opacity="0.4"/>
<circle cx="301" cy="94" r="22.650000000000002" fill="none" stroke="#8A4A35" stroke-width="0.3" stroke-opacity="0.4"/>
<circle cx="301" cy="94" r="24.150000000000002" fill="none" stroke="#8A4A35" stroke-width="0.3" stroke-opacity="0.4"/>
<circle cx="301" cy="94" r="25.650000000000002" fill="none" stroke="#8A4A35" stroke-width="0.3" stroke-opacity="0.4"/>
<circle cx="301" cy="94" r="27.150000000000002" fill="none" stroke="#8A4A35" stroke-width="0.3" stroke-opacity="0.4"/>
<circle cx="301" cy="94" r="28.650000000000002" fill="none" stroke="#8A4A35" stroke-width="0.3" stroke-opacity="0.4"/>
<circle cx="301" cy="94" r="30.150000000000002" fill="none" stroke="#8A4A35" stroke-width="0.3" stroke-opacity="0.4"/>
<circle cx="301" cy="94" r="31.650000000000002" fill="none" stroke="#8A4A35" stroke-width="0.3" stroke-opacity="0.4"/>
<circle cx="301" cy="94" r="33.150000000000006" fill="none" stroke="#8A4A35" stroke-width="0.3" stroke-opacity="0.4"/>
<circle cx="301" cy="94" r="34.650000000000006" fill="none" stroke="#8A4A35" stroke-width="0.3" stroke-opacity="0.4"/>
<circle cx="301" cy="94" r="36.150000000000006" fill="none" stroke="#8A4A35" stroke-width="0.3" stroke-opacity="0.4"/>
<circle cx="301" cy="94" r="37.650000000000006" fill="none" stroke="#8A4A35" stroke-width="0.3" stroke-opacity="0.4"/>
<circle cx="301" cy="94" r="39.150000000000006" fill="none" stroke="#8A4A35" stroke-width="0.3" stroke-opacity="0.4"/>
<circle cx="301" cy="94" r="16.45" fill="#C02828" stroke="#F4EFE4" stroke-width="0.6"/>
<circle cx="301" cy="94" r="7.5200000000000005" fill="#080808"/>
<line x1="312.28" y1="94.0" x2="315.805" y2="94.0" stroke="#D0D0D0" stroke-width="1" stroke-opacity="0.4"/>
<line x1="295.36" y1="103.76876655468847" x2="293.5975" y2="106.82150610302861" stroke="#D0D0D0" stroke-width="1" stroke-opacity="0.4"/>
<line x1="295.36" y1="84.23123344531153" x2="293.59749999999997" y2="81.17849389697139" stroke="#D0D0D0" stroke-width="1" stroke-opacity="0.4"/>
<circle cx="998" cy="94" r="47" fill="#F4EFE4" fill-opacity="0.7" stroke="#141414" stroke-width="0.8"/>
<circle cx="998" cy="94" r="39.949999999999996" fill="#6E3D2A"/>
<circle cx="998" cy="94" r="21.150000000000002" fill="#F4EFE4" fill-opacity="0.7"/>
<circle cx="998" cy="94" r="21.150000000000002" fill="none" stroke="#6E3D2A" stroke-width="0.3" stroke-opacity="0.4"/>
<circle cx="998" cy="94" r="22.650000000000002" fill="none" stroke="#6E3D2A" stroke-width="0.3" stroke-opacity="0.4"/>
<circle cx="998" cy="94" r="24.150000000000002" fill="none" stroke="#6E3D2A" stroke-width="0.3" stroke-opacity="0.4"/>
<circle cx="998" cy="94" r="25.650000000000002" fill="none" stroke="#6E3D2A" stroke-width="0.3" stroke-opacity="0.4"/>
<circle cx="998" cy="94" r="27.150000000000002" fill="none" stroke="#6E3D2A" stroke-width="0.3" stroke-opacity="0.4"/>
<circle cx="998" cy="94" r="28.650000000000002" fill="none" stroke="#6E3D2A" stroke-width="0.3" stroke-opacity="0.4"/>
<circle cx="998" cy="94" r="30.150000000000002" fill="none" stroke="#6E3D2A" stroke-width="0.3" stroke-opacity="0.4"/>
<circle cx="998" cy="94" r="31.650000000000002" fill="none" stroke="#6E3D2A" stroke-width="0.3" stroke-opacity="0.4"/>
<circle cx="998" cy="94" r="33.150000000000006" fill="none" stroke="#6E3D2A" stroke-width="0.3" stroke-opacity="0.4"/>
<circle cx="998" cy="94" r="34.650000000000006" fill="none" stroke="#6E3D2A" stroke-width="0.3" stroke-opacity="0.4"/>
<circle cx="998" cy="94" r="36.150000000000006" fill="none" stroke="#6E3D2A" stroke-width="0.3" stroke-opacity="0.4"/>
<circle cx="998" cy="94" r="37.650000000000006" fill="none" stroke="#6E3D2A" stroke-width="0.3" stroke-opacity="0.4"/>
<circle cx="998" cy="94" r="39.150000000000006" fill="none" stroke="#6E3D2A" stroke-width="0.3" stroke-opacity="0.4"/>
<circle cx="998" cy="94" r="16.45" fill="#2860A0" stroke="#F4EFE4" stroke-width="0.6"/>
<circle cx="998" cy="94" r="7.5200000000000005" fill="#080808"/>
<line x1="1009.28" y1="94.0" x2="1012.805" y2="94.0" stroke="#D0D0D0" stroke-width="1" stroke-opacity="0.4"/>
<line x1="992.36" y1="103.76876655468847" x2="990.5975" y2="106.82150610302861" stroke="#D0D0D0" stroke-width="1" stroke-opacity="0.4"/>
<line x1="992.36" y1="84.23123344531153" x2="990.5975" y2="81.17849389697139" stroke="#D0D0D0" stroke-width="1" stroke-opacity="0.4"/>
<rect x="575" y="68" width="149" height="73" fill="#141414" rx="2" ry="2"/>
<text x="649.5" y="86" font-size="18" fill="#D0D0D0" font-weight="normal" text-anchor="middle" font-family="Helvetica">♛</text>
<text x="650.0" y="177" font-size="12" fill="#D0D0D0" font-weight="bold" text-anchor="middle" font-family="Helvetica">BC2000DL  ·  DANISH TAPE 2000</text>
<rect x="0" y="0" width="1300" height="3" fill="#C42820"/>
<rect x="44" y="197" width="56" height="22" fill="#C42820" stroke="#141414" stroke-width="0.5" rx="2" ry="2"/>
<text x="72.0" y="211.0" font-size="9" fill="#FFFFFF" font-weight="bold" text-anchor="middle" font-family="Helvetica">ECHO</text>
<rect x="104" y="219" width="56" height="1.5" fill="#141414" rx="1" ry="1"/>
<rect x="104" y="197" width="56" height="22" fill="#A8A8A8" stroke="#141414" stroke-width="0.5" rx="2" ry="2"/>
<text x="132.0" y="211.0" font-size="9" fill="#141414" font-weight="bold" text-anchor="middle" font-family="Helvetica">REC 1</text>
<rect x="164" y="219" width="56" height="1.5" fill="#141414" rx="1" ry="1"/>
<rect x="164" y="197" width="56" height="22" fill="#A8A8A8" stroke="#141414" stroke-width="0.5" rx="2" ry="2"/>
<text x="192.0" y="211.0" font-size="9" fill="#141414" font-weight="bold" text-anchor="middle" font-family="Helvetica">REC 2</text>
<rect x="224" y="219" width="56" height="1.5" fill="#141414" rx="1" ry="1"/>
<rect x="224" y="197" width="56" height="22" fill="#A8A8A8" stroke="#141414" stroke-width="0.5" rx="2" ry="2"/>
<text x="252.0" y="211.0" font-size="9" fill="#141414" font-weight="bold" text-anchor="middle" font-family="Helvetica">SYNC</text>
<rect x="44" y="245" width="56" height="1.5" fill="#141414" rx="1" ry="1"/>
<rect x="44" y="223" width="56" height="22" fill="#A8A8A8" stroke="#141414" stroke-width="0.5" rx="2" ry="2"/>
<text x="72.0" y="237.0" font-size="9" fill="#141414" font-weight="bold" text-anchor="middle" font-family="Helvetica">BYPASS</text>
<rect x="104" y="223" width="56" height="22" fill="#C42820" stroke="#141414" stroke-width="0.5" rx="2" ry="2"/>
<text x="132.0" y="237.0" font-size="9" fill="#FFFFFF" font-weight="bold" text-anchor="middle" font-family="Helvetica">TRK 1</text>
<rect x="164" y="223" width="56" height="22" fill="#C42820" stroke="#141414" stroke-width="0.5" rx="2" ry="2"/>
<text x="192.0" y="237.0" font-size="9" fill="#FFFFFF" font-weight="bold" text-anchor="middle" font-family="Helvetica">TRK 2</text>
<rect x="224" y="245" width="56" height="1.5" fill="#141414" rx="1" ry="1"/>
<rect x="224" y="223" width="56" height="22" fill="#A8A8A8" stroke="#141414" stroke-width="0.5" rx="2" ry="2"/>
<text x="252.0" y="237.0" font-size="9" fill="#141414" font-weight="bold" text-anchor="middle" font-family="Helvetica">S/S</text>
<rect x="44" y="257" width="110" height="52" fill="#141414" stroke="#B5B5B5" stroke-width="1" rx="2" ry="2"/>
<text x="52" y="269" font-size="9" fill="#D0D0D0" font-weight="bold" text-anchor="start" font-family="Helvetica">L</text>
<line x1="54.0" y1="297" x2="54.0" y2="303" stroke="#D0D0D0" stroke-width="1" stroke-opacity="1.0"/>
<line x1="63.0" y1="297" x2="63.0" y2="300" stroke="#D0D0D0" stroke-width="1" stroke-opacity="1.0"/>
<line x1="72.0" y1="297" x2="72.0" y2="300" stroke="#D0D0D0" stroke-width="1" stroke-opacity="1.0"/>
<line x1="81.0" y1="297" x2="81.0" y2="300" stroke="#D0D0D0" stroke-width="1" stroke-opacity="1.0"/>
<line x1="90.0" y1="297" x2="90.0" y2="300" stroke="#D0D0D0" stroke-width="1" stroke-opacity="1.0"/>
<line x1="99.0" y1="297" x2="99.0" y2="303" stroke="#D0D0D0" stroke-width="1" stroke-opacity="1.0"/>
<line x1="108.0" y1="297" x2="108.0" y2="300" stroke="#D0D0D0" stroke-width="1" stroke-opacity="1.0"/>
<line x1="117.0" y1="297" x2="117.0" y2="300" stroke="#D0D0D0" stroke-width="1" stroke-opacity="1.0"/>
<line x1="126.0" y1="297" x2="126.0" y2="300" stroke="#C42820" stroke-width="1" stroke-opacity="1.0"/>
<line x1="135.0" y1="297" x2="135.0" y2="300" stroke="#C42820" stroke-width="1" stroke-opacity="1.0"/>
<line x1="144.0" y1="297" x2="144.0" y2="303" stroke="#C42820" stroke-width="1" stroke-opacity="1.0"/>
<line x1="117.0" y1="305" x2="144" y2="305" stroke="#C42820" stroke-width="2" stroke-opacity="1.0"/>
<line x1="99.0" y1="307" x2="109.08686182340651" y2="267.7142669846227" stroke="#D0D0D0" stroke-width="1.4" stroke-opacity="1.0"/>
<circle cx="99.0" cy="307" r="2.5" fill="#B5B5B5"/>
<rect x="158" y="257" width="110" height="52" fill="#141414" stroke="#B5B5B5" stroke-width="1" rx="2" ry="2"/>
<text x="166" y="269" font-size="9" fill="#D0D0D0" font-weight="bold" text-anchor="start" font-family="Helvetica">R</text>
<line x1="168.0" y1="297" x2="168.0" y2="303" stroke="#D0D0D0" stroke-width="1" stroke-opacity="1.0"/>
<line x1="177.0" y1="297" x2="177.0" y2="300" stroke="#D0D0D0" stroke-width="1" stroke-opacity="1.0"/>
<line x1="186.0" y1="297" x2="186.0" y2="300" stroke="#D0D0D0" stroke-width="1" stroke-opacity="1.0"/>
<line x1="195.0" y1="297" x2="195.0" y2="300" stroke="#D0D0D0" stroke-width="1" stroke-opacity="1.0"/>
<line x1="204.0" y1="297" x2="204.0" y2="300" stroke="#D0D0D0" stroke-width="1" stroke-opacity="1.0"/>
<line x1="213.0" y1="297" x2="213.0" y2="303" stroke="#D0D0D0" stroke-width="1" stroke-opacity="1.0"/>
<line x1="222.0" y1="297" x2="222.0" y2="300" stroke="#D0D0D0" stroke-width="1" stroke-opacity="1.0"/>
<line x1="231.0" y1="297" x2="231.0" y2="300" stroke="#D0D0D0" stroke-width="1" stroke-opacity="1.0"/>
<line x1="240.0" y1="297" x2="240.0" y2="300" stroke="#C42820" stroke-width="1" stroke-opacity="1.0"/>
<line x1="249.0" y1="297" x2="249.0" y2="300" stroke="#C42820" stroke-width="1" stroke-opacity="1.0"/>
<line x1="258.0" y1="297" x2="258.0" y2="303" stroke="#C42820" stroke-width="1" stroke-opacity="1.0"/>
<line x1="231.0" y1="305" x2="258" y2="305" stroke="#C42820" stroke-width="2" stroke-opacity="1.0"/>
<line x1="213.0" y1="307" x2="213.0" y2="266.44" stroke="#D0D0D0" stroke-width="1.4" stroke-opacity="1.0"/>
<circle cx="213.0" cy="307" r="2.5" fill="#B5B5B5"/>
<rect x="44" y="339" width="56" height="1.5" fill="#141414" rx="1" ry="1"/>
<rect x="44" y="317" width="56" height="22" fill="#A8A8A8" stroke="#141414" stroke-width="0.5" rx="2" ry="2"/>
<text x="72.0" y="331.0" font-size="9" fill="#141414" font-weight="bold" text-anchor="middle" font-family="Helvetica">SPEAKER</text>
<rect x="104" y="339" width="56" height="1.5" fill="#141414" rx="1" ry="1"/>
<rect x="104" y="317" width="56" height="22" fill="#A8A8A8" stroke="#141414" stroke-width="0.5" rx="2" ry="2"/>
<text x="132.0" y="331.0" font-size="9" fill="#141414" font-weight="bold" text-anchor="middle" font-family="Helvetica">MUTE</text>
<rect x="164" y="339" width="56" height="1.5" fill="#141414" rx="1" ry="1"/>
<rect x="164" y="317" width="56" height="22" fill="#A8A8A8" stroke="#141414" stroke-width="0.5" rx="2" ry="2"/>
<text x="192.0" y="331.0" font-size="9" fill="#141414" font-weight="bold" text-anchor="middle" font-family="Helvetica">PAUSE</text>
<rect x="224" y="339" width="56" height="1.5" fill="#141414" rx="1" ry="1"/>
<rect x="224" y="317" width="56" height="22" fill="#A8A8A8" stroke="#141414" stroke-width="0.5" rx="2" ry="2"/>
<text x="252.0" y="331.0" font-size="9" fill="#141414" font-weight="bold" text-anchor="middle" font-family="Helvetica">P.A.</text>
<rect x="44" y="365" width="56" height="1.5" fill="#141414" rx="1" ry="1"/>
<rect x="44" y="343" width="56" height="22" fill="#A8A8A8" stroke="#141414" stroke-width="0.5" rx="2" ry="2"/>
<text x="72.0" y="357.0" font-size="9" fill="#141414" font-weight="bold" text-anchor="middle" font-family="Helvetica">SPK A</text>
<rect x="104" y="365" width="56" height="1.5" fill="#141414" rx="1" ry="1"/>
<rect x="104" y="343" width="56" height="22" fill="#A8A8A8" stroke="#141414" stroke-width="0.5" rx="2" ry="2"/>
<text x="132.0" y="357.0" font-size="9" fill="#141414" font-weight="bold" text-anchor="middle" font-family="Helvetica">SPK B</text>
<rect x="164" y="343" width="56" height="22" fill="#C42820" stroke="#141414" stroke-width="0.5" rx="2" ry="2"/>
<text x="192.0" y="357.0" font-size="9" fill="#FFFFFF" font-weight="bold" text-anchor="middle" font-family="Helvetica">Lo-Z</text>
<rect x="44" y="373" width="110" height="22" fill="#2C2C2C" stroke="#B5B5B5" stroke-width="0.5" rx="2" ry="2"/>
<text x="52" y="387.0" font-size="9" fill="#D0D0D0" font-weight="normal" text-anchor="start" font-family="Helvetica">19 cm/s ▼</text>
<polygon points="142,382.0 148,382.0 145,386.0" fill="#B5B5B5"/>
<rect x="162" y="373" width="110" height="22" fill="#2C2C2C" stroke="#B5B5B5" stroke-width="0.5" rx="2" ry="2"/>
<text x="170" y="387.0" font-size="9" fill="#D0D0D0" font-weight="normal" text-anchor="start" font-family="Helvetica">Tape ▼</text>
<polygon points="260,382.0 266,382.0 263,386.0" fill="#B5B5B5"/>
<rect x="44" y="399" width="110" height="22" fill="#2C2C2C" stroke="#B5B5B5" stroke-width="0.5" rx="2" ry="2"/>
<text x="52" y="413.0" font-size="9" fill="#D0D0D0" font-weight="normal" text-anchor="start" font-family="Helvetica">H (magnetic) ▼</text>
<polygon points="142,408.0 148,408.0 145,412.0" fill="#B5B5B5"/>
<rect x="162" y="399" width="110" height="22" fill="#2C2C2C" stroke="#B5B5B5" stroke-width="0.5" rx="2" ry="2"/>
<text x="170" y="413.0" font-size="9" fill="#D0D0D0" font-weight="normal" text-anchor="start" font-family="Helvetica">L (3 mV) ▼</text>
<polygon points="260,408.0 266,408.0 263,412.0" fill="#B5B5B5"/>
<text x="421.5" y="207" font-size="12" fill="#D0D0D0" font-weight="bold" text-anchor="middle" font-family="Helvetica">♭</text>
<rect x="418.5" y="215" width="6" height="210" fill="#2C2C2C" rx="2" ry="2"/>
<line x1="404.5" y1="215.0" x2="408.5" y2="215.0" stroke="#9A9A9A" stroke-width="0.5" stroke-opacity="1.0"/>
<text x="402.5" y="218.0" font-size="7" fill="#D0D0D0" font-weight="normal" text-anchor="end" font-family="Helvetica">10</text>
<line x1="404.5" y1="236.0" x2="408.5" y2="236.0" stroke="#9A9A9A" stroke-width="0.5" stroke-opacity="1.0"/>
<text x="402.5" y="239.0" font-size="7" fill="#D0D0D0" font-weight="normal" text-anchor="end" font-family="Helvetica">9</text>
<line x1="404.5" y1="257.0" x2="408.5" y2="257.0" stroke="#9A9A9A" stroke-width="0.5" stroke-opacity="1.0"/>
<text x="402.5" y="260.0" font-size="7" fill="#D0D0D0" font-weight="normal" text-anchor="end" font-family="Helvetica">8</text>
<line x1="404.5" y1="278.0" x2="408.5" y2="278.0" stroke="#9A9A9A" stroke-width="0.5" stroke-opacity="1.0"/>
<text x="402.5" y="281.0" font-size="7" fill="#D0D0D0" font-weight="normal" text-anchor="end" font-family="Helvetica">7</text>
<line x1="404.5" y1="299.0" x2="408.5" y2="299.0" stroke="#9A9A9A" stroke-width="0.5" stroke-opacity="1.0"/>
<text x="402.5" y="302.0" font-size="7" fill="#D0D0D0" font-weight="normal" text-anchor="end" font-family="Helvetica">6</text>
<line x1="404.5" y1="320.0" x2="408.5" y2="320.0" stroke="#9A9A9A" stroke-width="0.5" stroke-opacity="1.0"/>
<text x="402.5" y="323.0" font-size="7" fill="#D0D0D0" font-weight="normal" text-anchor="end" font-family="Helvetica">5</text>
<line x1="404.5" y1="341.0" x2="408.5" y2="341.0" stroke="#9A9A9A" stroke-width="0.5" stroke-opacity="1.0"/>
<text x="402.5" y="344.0" font-size="7" fill="#D0D0D0" font-weight="normal" text-anchor="end" font-family="Helvetica">4</text>
<line x1="404.5" y1="362.0" x2="408.5" y2="362.0" stroke="#9A9A9A" stroke-width="0.5" stroke-opacity="1.0"/>
<text x="402.5" y="365.0" font-size="7" fill="#D0D0D0" font-weight="normal" text-anchor="end" font-family="Helvetica">3</text>
<line x1="404.5" y1="383.0" x2="408.5" y2="383.0" stroke="#9A9A9A" stroke-width="0.5" stroke-opacity="1.0"/>
<text x="402.5" y="386.0" font-size="7" fill="#D0D0D0" font-weight="normal" text-anchor="end" font-family="Helvetica">2</text>
<line x1="404.5" y1="404.0" x2="408.5" y2="404.0" stroke="#9A9A9A" stroke-width="0.5" stroke-opacity="1.0"/>
<text x="402.5" y="407.0" font-size="7" fill="#D0D0D0" font-weight="normal" text-anchor="end" font-family="Helvetica">1</text>
<line x1="404.5" y1="425.0" x2="408.5" y2="425.0" stroke="#9A9A9A" stroke-width="0.5" stroke-opacity="1.0"/>
<text x="402.5" y="428.0" font-size="7" fill="#D0D0D0" font-weight="normal" text-anchor="end" font-family="Helvetica">0</text>
<rect x="401.5" y="335.0" width="18" height="12" fill="#D0D0D0" stroke="#141414" stroke-width="0.5" rx="1.5" ry="1.5"/>
<line x1="403.5" y1="338.0" x2="417.5" y2="338.0" stroke="#141414" stroke-width="0.4" stroke-opacity="1.0"/>
<line x1="403.5" y1="340.5" x2="417.5" y2="340.5" stroke="#141414" stroke-width="0.4" stroke-opacity="1.0"/>
<line x1="403.5" y1="343.0" x2="417.5" y2="343.0" stroke="#141414" stroke-width="0.4" stroke-opacity="1.0"/>
<text x="395.5" y="343.0" font-size="6" fill="#D0D0D0" font-weight="bold" text-anchor="middle" font-family="Helvetica">L</text>
<rect x="423.5" y="335.0" width="18" height="12" fill="#B5B5B5" stroke="#141414" stroke-width="0.5" rx="1.5" ry="1.5"/>
<line x1="425.5" y1="338.0" x2="439.5" y2="338.0" stroke="#141414" stroke-width="0.4" stroke-opacity="1.0"/>
<line x1="425.5" y1="340.5" x2="439.5" y2="340.5" stroke="#141414" stroke-width="0.4" stroke-opacity="1.0"/>
<line x1="425.5" y1="343.0" x2="439.5" y2="343.0" stroke="#141414" stroke-width="0.4" stroke-opacity="1.0"/>
<text x="445.5" y="343.0" font-size="6" fill="#D0D0D0" font-weight="bold" text-anchor="middle" font-family="Helvetica">R</text>
<text x="496.5" y="207" font-size="12" fill="#D0D0D0" font-weight="bold" text-anchor="middle" font-family="Helvetica">○</text>
<rect x="493.5" y="215" width="6" height="210" fill="#2C2C2C" rx="2" ry="2"/>
<line x1="479.5" y1="215.0" x2="483.5" y2="215.0" stroke="#9A9A9A" stroke-width="0.5" stroke-opacity="1.0"/>
<text x="477.5" y="218.0" font-size="7" fill="#D0D0D0" font-weight="normal" text-anchor="end" font-family="Helvetica">10</text>
<line x1="479.5" y1="236.0" x2="483.5" y2="236.0" stroke="#9A9A9A" stroke-width="0.5" stroke-opacity="1.0"/>
<text x="477.5" y="239.0" font-size="7" fill="#D0D0D0" font-weight="normal" text-anchor="end" font-family="Helvetica">9</text>
<line x1="479.5" y1="257.0" x2="483.5" y2="257.0" stroke="#9A9A9A" stroke-width="0.5" stroke-opacity="1.0"/>
<text x="477.5" y="260.0" font-size="7" fill="#D0D0D0" font-weight="normal" text-anchor="end" font-family="Helvetica">8</text>
<line x1="479.5" y1="278.0" x2="483.5" y2="278.0" stroke="#9A9A9A" stroke-width="0.5" stroke-opacity="1.0"/>
<text x="477.5" y="281.0" font-size="7" fill="#D0D0D0" font-weight="normal" text-anchor="end" font-family="Helvetica">7</text>
<line x1="479.5" y1="299.0" x2="483.5" y2="299.0" stroke="#9A9A9A" stroke-width="0.5" stroke-opacity="1.0"/>
<text x="477.5" y="302.0" font-size="7" fill="#D0D0D0" font-weight="normal" text-anchor="end" font-family="Helvetica">6</text>
<line x1="479.5" y1="320.0" x2="483.5" y2="320.0" stroke="#9A9A9A" stroke-width="0.5" stroke-opacity="1.0"/>
<text x="477.5" y="323.0" font-size="7" fill="#D0D0D0" font-weight="normal" text-anchor="end" font-family="Helvetica">5</text>
<line x1="479.5" y1="341.0" x2="483.5" y2="341.0" stroke="#9A9A9A" stroke-width="0.5" stroke-opacity="1.0"/>
<text x="477.5" y="344.0" font-size="7" fill="#D0D0D0" font-weight="normal" text-anchor="end" font-family="Helvetica">4</text>
<line x1="479.5" y1="362.0" x2="483.5" y2="362.0" stroke="#9A9A9A" stroke-width="0.5" stroke-opacity="1.0"/>
<text x="477.5" y="365.0" font-size="7" fill="#D0D0D0" font-weight="normal" text-anchor="end" font-family="Helvetica">3</text>
<line x1="479.5" y1="383.0" x2="483.5" y2="383.0" stroke="#9A9A9A" stroke-width="0.5" stroke-opacity="1.0"/>
<text x="477.5" y="386.0" font-size="7" fill="#D0D0D0" font-weight="normal" text-anchor="end" font-family="Helvetica">2</text>
<line x1="479.5" y1="404.0" x2="483.5" y2="404.0" stroke="#9A9A9A" stroke-width="0.5" stroke-opacity="1.0"/>
<text x="477.5" y="407.0" font-size="7" fill="#D0D0D0" font-weight="normal" text-anchor="end" font-family="Helvetica">1</text>
<line x1="479.5" y1="425.0" x2="483.5" y2="425.0" stroke="#9A9A9A" stroke-width="0.5" stroke-opacity="1.0"/>
<text x="477.5" y="428.0" font-size="7" fill="#D0D0D0" font-weight="normal" text-anchor="end" font-family="Helvetica">0</text>
<rect x="476.5" y="293.0" width="18" height="12" fill="#D0D0D0" stroke="#141414" stroke-width="0.5" rx="1.5" ry="1.5"/>
<line x1="478.5" y1="296.0" x2="492.5" y2="296.0" stroke="#141414" stroke-width="0.4" stroke-opacity="1.0"/>
<line x1="478.5" y1="298.5" x2="492.5" y2="298.5" stroke="#141414" stroke-width="0.4" stroke-opacity="1.0"/>
<line x1="478.5" y1="301.0" x2="492.5" y2="301.0" stroke="#141414" stroke-width="0.4" stroke-opacity="1.0"/>
<text x="470.5" y="301.0" font-size="6" fill="#D0D0D0" font-weight="bold" text-anchor="middle" font-family="Helvetica">L</text>
<rect x="498.5" y="293.0" width="18" height="12" fill="#B5B5B5" stroke="#141414" stroke-width="0.5" rx="1.5" ry="1.5"/>
<line x1="500.5" y1="296.0" x2="514.5" y2="296.0" stroke="#141414" stroke-width="0.4" stroke-opacity="1.0"/>
<line x1="500.5" y1="298.5" x2="514.5" y2="298.5" stroke="#141414" stroke-width="0.4" stroke-opacity="1.0"/>
<line x1="500.5" y1="301.0" x2="514.5" y2="301.0" stroke="#141414" stroke-width="0.4" stroke-opacity="1.0"/>
<text x="520.5" y="301.0" font-size="6" fill="#D0D0D0" font-weight="bold" text-anchor="middle" font-family="Helvetica">R</text>
<text x="571.5" y="207" font-size="12" fill="#D0D0D0" font-weight="bold" text-anchor="middle" font-family="Helvetica">♂</text>
<rect x="568.5" y="215" width="6" height="210" fill="#2C2C2C" rx="2" ry="2"/>
<line x1="554.5" y1="215.0" x2="558.5" y2="215.0" stroke="#9A9A9A" stroke-width="0.5" stroke-opacity="1.0"/>
<text x="552.5" y="218.0" font-size="7" fill="#D0D0D0" font-weight="normal" text-anchor="end" font-family="Helvetica">10</text>
<line x1="554.5" y1="236.0" x2="558.5" y2="236.0" stroke="#9A9A9A" stroke-width="0.5" stroke-opacity="1.0"/>
<text x="552.5" y="239.0" font-size="7" fill="#D0D0D0" font-weight="normal" text-anchor="end" font-family="Helvetica">9</text>
<line x1="554.5" y1="257.0" x2="558.5" y2="257.0" stroke="#9A9A9A" stroke-width="0.5" stroke-opacity="1.0"/>
<text x="552.5" y="260.0" font-size="7" fill="#D0D0D0" font-weight="normal" text-anchor="end" font-family="Helvetica">8</text>
<line x1="554.5" y1="278.0" x2="558.5" y2="278.0" stroke="#9A9A9A" stroke-width="0.5" stroke-opacity="1.0"/>
<text x="552.5" y="281.0" font-size="7" fill="#D0D0D0" font-weight="normal" text-anchor="end" font-family="Helvetica">7</text>
<line x1="554.5" y1="299.0" x2="558.5" y2="299.0" stroke="#9A9A9A" stroke-width="0.5" stroke-opacity="1.0"/>
<text x="552.5" y="302.0" font-size="7" fill="#D0D0D0" font-weight="normal" text-anchor="end" font-family="Helvetica">6</text>
<line x1="554.5" y1="320.0" x2="558.5" y2="320.0" stroke="#9A9A9A" stroke-width="0.5" stroke-opacity="1.0"/>
<text x="552.5" y="323.0" font-size="7" fill="#D0D0D0" font-weight="normal" text-anchor="end" font-family="Helvetica">5</text>
<line x1="554.5" y1="341.0" x2="558.5" y2="341.0" stroke="#9A9A9A" stroke-width="0.5" stroke-opacity="1.0"/>
<text x="552.5" y="344.0" font-size="7" fill="#D0D0D0" font-weight="normal" text-anchor="end" font-family="Helvetica">4</text>
<line x1="554.5" y1="362.0" x2="558.5" y2="362.0" stroke="#9A9A9A" stroke-width="0.5" stroke-opacity="1.0"/>
<text x="552.5" y="365.0" font-size="7" fill="#D0D0D0" font-weight="normal" text-anchor="end" font-family="Helvetica">3</text>
<line x1="554.5" y1="383.0" x2="558.5" y2="383.0" stroke="#9A9A9A" stroke-width="0.5" stroke-opacity="1.0"/>
<text x="552.5" y="386.0" font-size="7" fill="#D0D0D0" font-weight="normal" text-anchor="end" font-family="Helvetica">2</text>
<line x1="554.5" y1="404.0" x2="558.5" y2="404.0" stroke="#9A9A9A" stroke-width="0.5" stroke-opacity="1.0"/>
<text x="552.5" y="407.0" font-size="7" fill="#D0D0D0" font-weight="normal" text-anchor="end" font-family="Helvetica">1</text>
<line x1="554.5" y1="425.0" x2="558.5" y2="425.0" stroke="#9A9A9A" stroke-width="0.5" stroke-opacity="1.0"/>
<text x="552.5" y="428.0" font-size="7" fill="#D0D0D0" font-weight="normal" text-anchor="end" font-family="Helvetica">0</text>
<rect x="551.5" y="272.0" width="18" height="12" fill="#D0D0D0" stroke="#141414" stroke-width="0.5" rx="1.5" ry="1.5"/>
<line x1="553.5" y1="275.0" x2="567.5" y2="275.0" stroke="#141414" stroke-width="0.4" stroke-opacity="1.0"/>
<line x1="553.5" y1="277.5" x2="567.5" y2="277.5" stroke="#141414" stroke-width="0.4" stroke-opacity="1.0"/>
<line x1="553.5" y1="280.0" x2="567.5" y2="280.0" stroke="#141414" stroke-width="0.4" stroke-opacity="1.0"/>
<text x="545.5" y="280.0" font-size="6" fill="#D0D0D0" font-weight="bold" text-anchor="middle" font-family="Helvetica">L</text>
<rect x="573.5" y="282.5" width="18" height="12" fill="#B5B5B5" stroke="#141414" stroke-width="0.5" rx="1.5" ry="1.5"/>
<line x1="575.5" y1="285.5" x2="589.5" y2="285.5" stroke="#141414" stroke-width="0.4" stroke-opacity="1.0"/>
<line x1="575.5" y1="288.0" x2="589.5" y2="288.0" stroke="#141414" stroke-width="0.4" stroke-opacity="1.0"/>
<line x1="575.5" y1="290.5" x2="589.5" y2="290.5" stroke="#141414" stroke-width="0.4" stroke-opacity="1.0"/>
<text x="595.5" y="290.5" font-size="6" fill="#D0D0D0" font-weight="bold" text-anchor="middle" font-family="Helvetica">R</text>
<text x="646.5" y="207" font-size="12" fill="#D0D0D0" font-weight="bold" text-anchor="middle" font-family="Helvetica">S</text>
<rect x="643.5" y="215" width="6" height="210" fill="#2C2C2C" rx="2" ry="2"/>
<line x1="629.5" y1="215.0" x2="633.5" y2="215.0" stroke="#9A9A9A" stroke-width="0.5" stroke-opacity="1.0"/>
<text x="627.5" y="218.0" font-size="7" fill="#D0D0D0" font-weight="normal" text-anchor="end" font-family="Helvetica">10</text>
<line x1="629.5" y1="236.0" x2="633.5" y2="236.0" stroke="#9A9A9A" stroke-width="0.5" stroke-opacity="1.0"/>
<text x="627.5" y="239.0" font-size="7" fill="#D0D0D0" font-weight="normal" text-anchor="end" font-family="Helvetica">9</text>
<line x1="629.5" y1="257.0" x2="633.5" y2="257.0" stroke="#9A9A9A" stroke-width="0.5" stroke-opacity="1.0"/>
<text x="627.5" y="260.0" font-size="7" fill="#D0D0D0" font-weight="normal" text-anchor="end" font-family="Helvetica">8</text>
<line x1="629.5" y1="278.0" x2="633.5" y2="278.0" stroke="#9A9A9A" stroke-width="0.5" stroke-opacity="1.0"/>
<text x="627.5" y="281.0" font-size="7" fill="#D0D0D0" font-weight="normal" text-anchor="end" font-family="Helvetica">7</text>
<line x1="629.5" y1="299.0" x2="633.5" y2="299.0" stroke="#9A9A9A" stroke-width="0.5" stroke-opacity="1.0"/>
<text x="627.5" y="302.0" font-size="7" fill="#D0D0D0" font-weight="normal" text-anchor="end" font-family="Helvetica">6</text>
<line x1="629.5" y1="320.0" x2="633.5" y2="320.0" stroke="#9A9A9A" stroke-width="0.5" stroke-opacity="1.0"/>
<text x="627.5" y="323.0" font-size="7" fill="#D0D0D0" font-weight="normal" text-anchor="end" font-family="Helvetica">5</text>
<line x1="629.5" y1="341.0" x2="633.5" y2="341.0" stroke="#9A9A9A" stroke-width="0.5" stroke-opacity="1.0"/>
<text x="627.5" y="344.0" font-size="7" fill="#D0D0D0" font-weight="normal" text-anchor="end" font-family="Helvetica">4</text>
<line x1="629.5" y1="362.0" x2="633.5" y2="362.0" stroke="#9A9A9A" stroke-width="0.5" stroke-opacity="1.0"/>
<text x="627.5" y="365.0" font-size="7" fill="#D0D0D0" font-weight="normal" text-anchor="end" font-family="Helvetica">3</text>
<line x1="629.5" y1="383.0" x2="633.5" y2="383.0" stroke="#9A9A9A" stroke-width="0.5" stroke-opacity="1.0"/>
<text x="627.5" y="386.0" font-size="7" fill="#D0D0D0" font-weight="normal" text-anchor="end" font-family="Helvetica">2</text>
<line x1="629.5" y1="404.0" x2="633.5" y2="404.0" stroke="#9A9A9A" stroke-width="0.5" stroke-opacity="1.0"/>
<text x="627.5" y="407.0" font-size="7" fill="#D0D0D0" font-weight="normal" text-anchor="end" font-family="Helvetica">1</text>
<line x1="629.5" y1="425.0" x2="633.5" y2="425.0" stroke="#9A9A9A" stroke-width="0.5" stroke-opacity="1.0"/>
<text x="627.5" y="428.0" font-size="7" fill="#D0D0D0" font-weight="normal" text-anchor="end" font-family="Helvetica">0</text>
<rect x="626.5" y="314.0" width="18" height="12" fill="#D0D0D0" stroke="#141414" stroke-width="0.5" rx="1.5" ry="1.5"/>
<line x1="628.5" y1="317.0" x2="642.5" y2="317.0" stroke="#141414" stroke-width="0.4" stroke-opacity="1.0"/>
<line x1="628.5" y1="319.5" x2="642.5" y2="319.5" stroke="#141414" stroke-width="0.4" stroke-opacity="1.0"/>
<line x1="628.5" y1="322.0" x2="642.5" y2="322.0" stroke="#141414" stroke-width="0.4" stroke-opacity="1.0"/>
<text x="620.5" y="322.0" font-size="6" fill="#D0D0D0" font-weight="bold" text-anchor="middle" font-family="Helvetica">L</text>
<rect x="648.5" y="314.0" width="18" height="12" fill="#B5B5B5" stroke="#141414" stroke-width="0.5" rx="1.5" ry="1.5"/>
<line x1="650.5" y1="317.0" x2="664.5" y2="317.0" stroke="#141414" stroke-width="0.4" stroke-opacity="1.0"/>
<line x1="650.5" y1="319.5" x2="664.5" y2="319.5" stroke="#141414" stroke-width="0.4" stroke-opacity="1.0"/>
<line x1="650.5" y1="322.0" x2="664.5" y2="322.0" stroke="#141414" stroke-width="0.4" stroke-opacity="1.0"/>
<text x="670.5" y="322.0" font-size="6" fill="#D0D0D0" font-weight="bold" text-anchor="middle" font-family="Helvetica">R</text>
<text x="721.5" y="207" font-size="12" fill="#D0D0D0" font-weight="bold" text-anchor="middle" font-family="Helvetica">◁</text>
<rect x="718.5" y="215" width="6" height="210" fill="#2C2C2C" rx="2" ry="2"/>
<line x1="704.5" y1="215.0" x2="708.5" y2="215.0" stroke="#9A9A9A" stroke-width="0.5" stroke-opacity="1.0"/>
<text x="702.5" y="218.0" font-size="7" fill="#D0D0D0" font-weight="normal" text-anchor="end" font-family="Helvetica">10</text>
<line x1="704.5" y1="236.0" x2="708.5" y2="236.0" stroke="#9A9A9A" stroke-width="0.5" stroke-opacity="1.0"/>
<text x="702.5" y="239.0" font-size="7" fill="#D0D0D0" font-weight="normal" text-anchor="end" font-family="Helvetica">9</text>
<line x1="704.5" y1="257.0" x2="708.5" y2="257.0" stroke="#9A9A9A" stroke-width="0.5" stroke-opacity="1.0"/>
<text x="702.5" y="260.0" font-size="7" fill="#D0D0D0" font-weight="normal" text-anchor="end" font-family="Helvetica">8</text>
<line x1="704.5" y1="278.0" x2="708.5" y2="278.0" stroke="#9A9A9A" stroke-width="0.5" stroke-opacity="1.0"/>
<text x="702.5" y="281.0" font-size="7" fill="#D0D0D0" font-weight="normal" text-anchor="end" font-family="Helvetica">7</text>
<line x1="704.5" y1="299.0" x2="708.5" y2="299.0" stroke="#9A9A9A" stroke-width="0.5" stroke-opacity="1.0"/>
<text x="702.5" y="302.0" font-size="7" fill="#D0D0D0" font-weight="normal" text-anchor="end" font-family="Helvetica">6</text>
<line x1="704.5" y1="320.0" x2="708.5" y2="320.0" stroke="#9A9A9A" stroke-width="0.5" stroke-opacity="1.0"/>
<text x="702.5" y="323.0" font-size="7" fill="#D0D0D0" font-weight="normal" text-anchor="end" font-family="Helvetica">5</text>
<line x1="704.5" y1="341.0" x2="708.5" y2="341.0" stroke="#9A9A9A" stroke-width="0.5" stroke-opacity="1.0"/>
<text x="702.5" y="344.0" font-size="7" fill="#D0D0D0" font-weight="normal" text-anchor="end" font-family="Helvetica">4</text>
<line x1="704.5" y1="362.0" x2="708.5" y2="362.0" stroke="#9A9A9A" stroke-width="0.5" stroke-opacity="1.0"/>
<text x="702.5" y="365.0" font-size="7" fill="#D0D0D0" font-weight="normal" text-anchor="end" font-family="Helvetica">3</text>
<line x1="704.5" y1="383.0" x2="708.5" y2="383.0" stroke="#9A9A9A" stroke-width="0.5" stroke-opacity="1.0"/>
<text x="702.5" y="386.0" font-size="7" fill="#D0D0D0" font-weight="normal" text-anchor="end" font-family="Helvetica">2</text>
<line x1="704.5" y1="404.0" x2="708.5" y2="404.0" stroke="#9A9A9A" stroke-width="0.5" stroke-opacity="1.0"/>
<text x="702.5" y="407.0" font-size="7" fill="#D0D0D0" font-weight="normal" text-anchor="end" font-family="Helvetica">1</text>
<line x1="704.5" y1="425.0" x2="708.5" y2="425.0" stroke="#9A9A9A" stroke-width="0.5" stroke-opacity="1.0"/>
<text x="702.5" y="428.0" font-size="7" fill="#D0D0D0" font-weight="normal" text-anchor="end" font-family="Helvetica">0</text>
<rect x="701.5" y="356.0" width="18" height="12" fill="#D0D0D0" stroke="#141414" stroke-width="0.5" rx="1.5" ry="1.5"/>
<line x1="703.5" y1="359.0" x2="717.5" y2="359.0" stroke="#141414" stroke-width="0.4" stroke-opacity="1.0"/>
<line x1="703.5" y1="361.5" x2="717.5" y2="361.5" stroke="#141414" stroke-width="0.4" stroke-opacity="1.0"/>
<line x1="703.5" y1="364.0" x2="717.5" y2="364.0" stroke="#141414" stroke-width="0.4" stroke-opacity="1.0"/>
<text x="695.5" y="364.0" font-size="6" fill="#D0D0D0" font-weight="bold" text-anchor="middle" font-family="Helvetica">L</text>
<rect x="723.5" y="356.0" width="18" height="12" fill="#B5B5B5" stroke="#141414" stroke-width="0.5" rx="1.5" ry="1.5"/>
<line x1="725.5" y1="359.0" x2="739.5" y2="359.0" stroke="#141414" stroke-width="0.4" stroke-opacity="1.0"/>
<line x1="725.5" y1="361.5" x2="739.5" y2="361.5" stroke="#141414" stroke-width="0.4" stroke-opacity="1.0"/>
<line x1="725.5" y1="364.0" x2="739.5" y2="364.0" stroke="#141414" stroke-width="0.4" stroke-opacity="1.0"/>
<text x="745.5" y="364.0" font-size="6" fill="#D0D0D0" font-weight="bold" text-anchor="middle" font-family="Helvetica">R</text>
<circle cx="801.0" cy="217" r="22" fill="url(#knabGrad)" stroke="#141414" stroke-width="0.5"/>
<circle cx="801.0" cy="201.6" r="3.52" fill="#1F1F1F"/>
<text x="801.0" y="251" font-size="8" fill="#D0D0D0" font-weight="bold" text-anchor="middle" font-family="Helvetica">TREBLE</text>
<circle cx="865.0" cy="217" r="22" fill="url(#knabGrad)" stroke="#141414" stroke-width="0.5"/>
<circle cx="865.0" cy="201.6" r="3.52" fill="#1F1F1F"/>
<text x="865.0" y="251" font-size="8" fill="#D0D0D0" font-weight="bold" text-anchor="middle" font-family="Helvetica">BASS</text>
<circle cx="929.0" cy="217" r="22" fill="url(#knabGrad)" stroke="#141414" stroke-width="0.5"/>
<circle cx="929.0" cy="201.6" r="3.52" fill="#1F1F1F"/>
<text x="929.0" y="251" font-size="8" fill="#D0D0D0" font-weight="bold" text-anchor="middle" font-family="Helvetica">BAL</text>
<circle cx="801.0" cy="287" r="22" fill="url(#knabGrad)" stroke="#141414" stroke-width="0.5"/>
<circle cx="814.3367912182804" cy="279.3" r="3.52" fill="#1F1F1F"/>
<text x="801.0" y="321" font-size="8" fill="#D0D0D0" font-weight="bold" text-anchor="middle" font-family="Helvetica">VOL</text>
<circle cx="865.0" cy="287" r="22" fill="url(#knabGrad)" stroke="#141414" stroke-width="0.5"/>
<circle cx="865.0" cy="271.6" r="3.52" fill="#1F1F1F"/>
<text x="865.0" y="321" font-size="8" fill="#D0D0D0" font-weight="bold" text-anchor="middle" font-family="Helvetica">BIAS</text>
<circle cx="929.0" cy="287" r="22" fill="url(#knabGrad)" stroke="#141414" stroke-width="0.5"/>
<circle cx="918.1105555697271" cy="276.1105555697272" r="3.52" fill="#1F1F1F"/>
<text x="929.0" y="321" font-size="8" fill="#D0D0D0" font-weight="bold" text-anchor="middle" font-family="Helvetica">MULT</text>
<text x="789" y="381.0" font-size="14" fill="#D0D0D0" font-weight="bold" text-anchor="middle" font-family="Helvetica">‹‹</text>
<text x="889" y="381.0" font-size="14" fill="#D0D0D0" font-weight="bold" text-anchor="middle" font-family="Helvetica">››</text>
<line x1="839.0" y1="389.0" x2="839.0" y2="381.0" stroke="#D0D0D0" stroke-width="4" stroke-opacity="1.0"/>
<circle cx="839.0" cy="381.0" r="5" fill="#D0D0D0" stroke="#141414" stroke-width="0.6"/>
<rect x="921.0" y="365" width="26.0" height="24" fill="#080808" stroke="#141414" stroke-width="0.5" rx="1" ry="1"/>
<text x="934.0" y="381.0" font-size="12" fill="#D0D0D0" font-weight="bold" text-anchor="middle" font-family="Helvetica">0</text>
<rect x="948.0" y="365" width="26.0" height="24" fill="#080808" stroke="#141414" stroke-width="0.5" rx="1" ry="1"/>
<text x="961.0" y="381.0" font-size="12" fill="#D0D0D0" font-weight="bold" text-anchor="middle" font-family="Helvetica">4</text>
<rect x="975.0" y="365" width="26.0" height="24" fill="#080808" stroke="#141414" stroke-width="0.5" rx="1" ry="1"/>
<text x="988.0" y="381.0" font-size="12" fill="#D0D0D0" font-weight="bold" text-anchor="middle" font-family="Helvetica">2</text>
</svg>